<mxfile host="Electron" modified="2023-11-21T16:24:45.857Z" agent="Mozilla/5.0 (Windows NT 10.0; Win64; x64) AppleWebKit/537.36 (KHTML, like Gecko) draw.io/22.0.2 Chrome/114.0.5735.289 Electron/25.8.4 Safari/537.36" etag="hqS9pDy32LiRgjh4wHts" version="22.0.2" type="device">
  <diagram name="Seite-1" id="CErpVBUgEfdhA70EVk6W">
    <mxGraphModel dx="1290" dy="621" grid="1" gridSize="10" guides="1" tooltips="1" connect="1" arrows="1" fold="1" page="1" pageScale="1" pageWidth="827" pageHeight="1169" math="0" shadow="0">
      <root>
        <mxCell id="0" />
        <mxCell id="1" parent="0" />
        <mxCell id="WoYhFYyGGw2v94fdUYJs-2" value="" style="points=[[0.145,0.145,0],[0.5,0,0],[0.855,0.145,0],[1,0.5,0],[0.855,0.855,0],[0.5,1,0],[0.145,0.855,0],[0,0.5,0]];shape=mxgraph.bpmn.event;html=1;verticalLabelPosition=bottom;labelBackgroundColor=#ffffff;verticalAlign=top;align=center;perimeter=ellipsePerimeter;outlineConnect=0;aspect=fixed;outline=standard;symbol=general;" vertex="1" parent="1">
          <mxGeometry x="245" y="488" width="50" height="50" as="geometry" />
        </mxCell>
        <mxCell id="WoYhFYyGGw2v94fdUYJs-3" value="Wahrnehmung und Analyse der Umgebung" style="points=[[0.25,0,0],[0.5,0,0],[0.75,0,0],[1,0.25,0],[1,0.5,0],[1,0.75,0],[0.75,1,0],[0.5,1,0],[0.25,1,0],[0,0.75,0],[0,0.5,0],[0,0.25,0]];shape=mxgraph.bpmn.task;whiteSpace=wrap;rectStyle=rounded;size=10;html=1;container=1;expand=0;collapsible=0;taskMarker=abstract;" vertex="1" parent="1">
          <mxGeometry x="400" y="120" width="120" height="80" as="geometry" />
        </mxCell>
        <mxCell id="WoYhFYyGGw2v94fdUYJs-12" value="" style="edgeStyle=orthogonalEdgeStyle;rounded=0;orthogonalLoop=1;jettySize=auto;html=1;" edge="1" parent="1" source="WoYhFYyGGw2v94fdUYJs-5" target="WoYhFYyGGw2v94fdUYJs-11">
          <mxGeometry relative="1" as="geometry" />
        </mxCell>
        <mxCell id="WoYhFYyGGw2v94fdUYJs-5" value="Planung der Route" style="points=[[0.25,0,0],[0.5,0,0],[0.75,0,0],[1,0.25,0],[1,0.5,0],[1,0.75,0],[0.75,1,0],[0.5,1,0],[0.25,1,0],[0,0.75,0],[0,0.5,0],[0,0.25,0]];shape=mxgraph.bpmn.task;whiteSpace=wrap;rectStyle=rounded;size=10;html=1;container=1;expand=0;collapsible=0;taskMarker=abstract;" vertex="1" parent="1">
          <mxGeometry x="400" y="270" width="120" height="80" as="geometry" />
        </mxCell>
        <mxCell id="WoYhFYyGGw2v94fdUYJs-11" value="" style="rhombus;whiteSpace=wrap;html=1;" vertex="1" parent="1">
          <mxGeometry x="580" y="270" width="80" height="80" as="geometry" />
        </mxCell>
        <mxCell id="WoYhFYyGGw2v94fdUYJs-30" value="" style="edgeStyle=orthogonalEdgeStyle;rounded=0;orthogonalLoop=1;jettySize=auto;html=1;" edge="1" parent="1" source="WoYhFYyGGw2v94fdUYJs-13" target="WoYhFYyGGw2v94fdUYJs-29">
          <mxGeometry relative="1" as="geometry" />
        </mxCell>
        <mxCell id="WoYhFYyGGw2v94fdUYJs-13" value="Kurzzeitroute durchführen" style="points=[[0.25,0,0],[0.5,0,0],[0.75,0,0],[1,0.25,0],[1,0.5,0],[1,0.75,0],[0.75,1,0],[0.5,1,0],[0.25,1,0],[0,0.75,0],[0,0.5,0],[0,0.25,0]];shape=mxgraph.bpmn.task;whiteSpace=wrap;rectStyle=rounded;size=10;html=1;container=1;expand=0;collapsible=0;taskMarker=abstract;" vertex="1" parent="1">
          <mxGeometry x="790" y="270" width="120" height="80" as="geometry" />
        </mxCell>
        <mxCell id="WoYhFYyGGw2v94fdUYJs-14" style="edgeStyle=orthogonalEdgeStyle;rounded=0;orthogonalLoop=1;jettySize=auto;html=1;exitX=1;exitY=0.5;exitDx=0;exitDy=0;entryX=0;entryY=0.5;entryDx=0;entryDy=0;entryPerimeter=0;" edge="1" parent="1" source="WoYhFYyGGw2v94fdUYJs-11" target="WoYhFYyGGw2v94fdUYJs-13">
          <mxGeometry relative="1" as="geometry" />
        </mxCell>
        <mxCell id="WoYhFYyGGw2v94fdUYJs-15" value="Anpassung der Steuerbefehle" style="points=[[0.25,0,0],[0.5,0,0],[0.75,0,0],[1,0.25,0],[1,0.5,0],[1,0.75,0],[0.75,1,0],[0.5,1,0],[0.25,1,0],[0,0.75,0],[0,0.5,0],[0,0.25,0]];shape=mxgraph.bpmn.task;whiteSpace=wrap;rectStyle=rounded;size=10;html=1;container=1;expand=0;collapsible=0;taskMarker=abstract;" vertex="1" parent="1">
          <mxGeometry x="790" y="390" width="120" height="80" as="geometry" />
        </mxCell>
        <mxCell id="WoYhFYyGGw2v94fdUYJs-16" style="edgeStyle=orthogonalEdgeStyle;rounded=0;orthogonalLoop=1;jettySize=auto;html=1;exitX=0.5;exitY=1;exitDx=0;exitDy=0;entryX=0;entryY=0.5;entryDx=0;entryDy=0;entryPerimeter=0;" edge="1" parent="1" source="WoYhFYyGGw2v94fdUYJs-11" target="WoYhFYyGGw2v94fdUYJs-15">
          <mxGeometry relative="1" as="geometry" />
        </mxCell>
        <mxCell id="WoYhFYyGGw2v94fdUYJs-17" value="Route ändern" style="text;html=1;align=center;verticalAlign=middle;resizable=0;points=[];autosize=1;strokeColor=none;fillColor=none;" vertex="1" parent="1">
          <mxGeometry x="660" y="400" width="100" height="30" as="geometry" />
        </mxCell>
        <mxCell id="WoYhFYyGGw2v94fdUYJs-18" value="Route behalten" style="text;html=1;align=center;verticalAlign=middle;resizable=0;points=[];autosize=1;strokeColor=none;fillColor=none;" vertex="1" parent="1">
          <mxGeometry x="660" y="280" width="100" height="30" as="geometry" />
        </mxCell>
        <mxCell id="WoYhFYyGGw2v94fdUYJs-20" value="Fusion der Sensordaten" style="points=[[0.25,0,0],[0.5,0,0],[0.75,0,0],[1,0.25,0],[1,0.5,0],[1,0.75,0],[0.75,1,0],[0.5,1,0],[0.25,1,0],[0,0.75,0],[0,0.5,0],[0,0.25,0]];shape=mxgraph.bpmn.task;whiteSpace=wrap;rectStyle=rounded;size=10;html=1;container=1;expand=0;collapsible=0;taskMarker=abstract;" vertex="1" parent="1">
          <mxGeometry x="210" y="120" width="120" height="80" as="geometry" />
        </mxCell>
        <mxCell id="WoYhFYyGGw2v94fdUYJs-29" value="" style="rhombus;whiteSpace=wrap;html=1;" vertex="1" parent="1">
          <mxGeometry x="980" y="270" width="80" height="80" as="geometry" />
        </mxCell>
        <mxCell id="WoYhFYyGGw2v94fdUYJs-32" value="" style="points=[[0.145,0.145,0],[0.5,0,0],[0.855,0.145,0],[1,0.5,0],[0.855,0.855,0],[0.5,1,0],[0.145,0.855,0],[0,0.5,0]];shape=mxgraph.bpmn.event;html=1;verticalLabelPosition=bottom;labelBackgroundColor=#ffffff;verticalAlign=top;align=center;perimeter=ellipsePerimeter;outlineConnect=0;aspect=fixed;outline=end;symbol=terminate;" vertex="1" parent="1">
          <mxGeometry x="1191" y="285" width="50" height="50" as="geometry" />
        </mxCell>
        <mxCell id="WoYhFYyGGw2v94fdUYJs-33" style="edgeStyle=orthogonalEdgeStyle;rounded=0;orthogonalLoop=1;jettySize=auto;html=1;exitX=1;exitY=0.5;exitDx=0;exitDy=0;entryX=0;entryY=0.5;entryDx=0;entryDy=0;entryPerimeter=0;" edge="1" parent="1" source="WoYhFYyGGw2v94fdUYJs-29" target="WoYhFYyGGw2v94fdUYJs-32">
          <mxGeometry relative="1" as="geometry" />
        </mxCell>
        <mxCell id="WoYhFYyGGw2v94fdUYJs-34" value="Ziel errreicht" style="text;html=1;align=center;verticalAlign=middle;resizable=0;points=[];autosize=1;strokeColor=none;fillColor=none;" vertex="1" parent="1">
          <mxGeometry x="1070" y="280" width="90" height="30" as="geometry" />
        </mxCell>
        <mxCell id="WoYhFYyGGw2v94fdUYJs-37" value="Empfang der Sensordaten" style="points=[[0.25,0,0],[0.5,0,0],[0.75,0,0],[1,0.25,0],[1,0.5,0],[1,0.75,0],[0.75,1,0],[0.5,1,0],[0.25,1,0],[0,0.75,0],[0,0.5,0],[0,0.25,0]];shape=mxgraph.bpmn.task;whiteSpace=wrap;rectStyle=rounded;size=10;html=1;container=1;expand=0;collapsible=0;taskMarker=abstract;" vertex="1" parent="1">
          <mxGeometry x="210" y="360" width="120" height="80" as="geometry" />
        </mxCell>
        <mxCell id="WoYhFYyGGw2v94fdUYJs-39" style="edgeStyle=orthogonalEdgeStyle;rounded=0;orthogonalLoop=1;jettySize=auto;html=1;exitX=0.5;exitY=0;exitDx=0;exitDy=0;exitPerimeter=0;entryX=0.5;entryY=1;entryDx=0;entryDy=0;entryPerimeter=0;" edge="1" parent="1" source="WoYhFYyGGw2v94fdUYJs-2" target="WoYhFYyGGw2v94fdUYJs-37">
          <mxGeometry relative="1" as="geometry" />
        </mxCell>
        <mxCell id="WoYhFYyGGw2v94fdUYJs-40" style="edgeStyle=orthogonalEdgeStyle;rounded=0;orthogonalLoop=1;jettySize=auto;html=1;exitX=0.5;exitY=0;exitDx=0;exitDy=0;exitPerimeter=0;entryX=0.5;entryY=1;entryDx=0;entryDy=0;entryPerimeter=0;" edge="1" parent="1" source="WoYhFYyGGw2v94fdUYJs-37" target="WoYhFYyGGw2v94fdUYJs-20">
          <mxGeometry relative="1" as="geometry" />
        </mxCell>
        <mxCell id="WoYhFYyGGw2v94fdUYJs-41" style="edgeStyle=orthogonalEdgeStyle;rounded=0;orthogonalLoop=1;jettySize=auto;html=1;exitX=1;exitY=0.5;exitDx=0;exitDy=0;exitPerimeter=0;entryX=0;entryY=0.5;entryDx=0;entryDy=0;entryPerimeter=0;" edge="1" parent="1" source="WoYhFYyGGw2v94fdUYJs-20" target="WoYhFYyGGw2v94fdUYJs-3">
          <mxGeometry relative="1" as="geometry" />
        </mxCell>
        <mxCell id="WoYhFYyGGw2v94fdUYJs-42" style="edgeStyle=orthogonalEdgeStyle;rounded=0;orthogonalLoop=1;jettySize=auto;html=1;exitX=0.5;exitY=1;exitDx=0;exitDy=0;exitPerimeter=0;entryX=0.5;entryY=0;entryDx=0;entryDy=0;entryPerimeter=0;" edge="1" parent="1" source="WoYhFYyGGw2v94fdUYJs-3" target="WoYhFYyGGw2v94fdUYJs-5">
          <mxGeometry relative="1" as="geometry" />
        </mxCell>
        <mxCell id="WoYhFYyGGw2v94fdUYJs-44" style="edgeStyle=orthogonalEdgeStyle;rounded=0;orthogonalLoop=1;jettySize=auto;html=1;exitX=0.25;exitY=1;exitDx=0;exitDy=0;exitPerimeter=0;entryX=1;entryY=0.25;entryDx=0;entryDy=0;entryPerimeter=0;" edge="1" parent="1" source="WoYhFYyGGw2v94fdUYJs-15" target="WoYhFYyGGw2v94fdUYJs-37">
          <mxGeometry relative="1" as="geometry">
            <Array as="points">
              <mxPoint x="850" y="470" />
              <mxPoint x="850" y="490" />
              <mxPoint x="420" y="490" />
              <mxPoint x="420" y="380" />
            </Array>
          </mxGeometry>
        </mxCell>
        <mxCell id="WoYhFYyGGw2v94fdUYJs-45" style="edgeStyle=orthogonalEdgeStyle;rounded=0;orthogonalLoop=1;jettySize=auto;html=1;exitX=0.5;exitY=1;exitDx=0;exitDy=0;entryX=1;entryY=0.75;entryDx=0;entryDy=0;entryPerimeter=0;" edge="1" parent="1" source="WoYhFYyGGw2v94fdUYJs-29" target="WoYhFYyGGw2v94fdUYJs-37">
          <mxGeometry relative="1" as="geometry">
            <Array as="points">
              <mxPoint x="1020" y="530" />
              <mxPoint x="380" y="530" />
              <mxPoint x="380" y="420" />
            </Array>
          </mxGeometry>
        </mxCell>
        <mxCell id="WoYhFYyGGw2v94fdUYJs-46" value="Ziel nicht erreicht" style="text;html=1;align=center;verticalAlign=middle;resizable=0;points=[];autosize=1;strokeColor=none;fillColor=none;" vertex="1" parent="1">
          <mxGeometry x="895" y="498" width="110" height="30" as="geometry" />
        </mxCell>
      </root>
    </mxGraphModel>
  </diagram>
</mxfile>
